
<svg width="512" height="512" viewBox="0 0 512 512" fill="none" xmlns="http://www.w3.org/2000/svg" xmlns:xlink="http://www.w3.org/1999/xlink" class="" version="1.1">
  <rect id="«r9»" width="512" height="512" x="0" y="0" rx="12.5%" fill="#286a4d
" stroke="#FFFFFF" stroke-width="0" stroke-opacity="100%" paint-order="stroke"/>
  <clipPath id="clip">
    <use xlink:href="#«r9»"/>
  </clipPath>
  <defs>
    <radialGradient id="«rb»" cx="0" cy="0" r="1" gradientUnits="userSpaceOnUse" gradientTransform="translate(256) rotate(90) scale(512)">
      <stop stop-color="white"/>
      <stop offset="1" stop-color="white" stop-opacity="0"/>
    </radialGradient>
  </defs>
  <svg xmlns="http://www.w3.org/2000/svg" fill="none" viewBox="0 0 16 16" width="352" height="352" x="80" y="82" alignment-baseline="middle" style="color: #eaf6eb;" transform="translate(-50, -50) scale(1.2)">
    <path stroke="currentColor" stroke-linecap="round" stroke-linejoin="round" stroke-width="1.5" d="M1.75 8.75h1.5l2.75-7 2 12.5 3-8.5 1.75 3h1.5"/>
  </svg>
  <g transform="translate(300, 75) scale(0.55) rotate(-34)">
    <path d="M216.82,70.174l-61.951-56.333c-2.123-1.93-5.158-2.479-7.818-1.42L4.727,69.049c-3.061,1.218-4.93,4.271-4.703,7.489C0.014,76.698,0,76.856,0,77.017v32.078c0,4.143,3.357,7.5,7.5,7.5c14.104,0,25.576,11.474,25.576,25.577S21.604,167.751,7.5,167.751c-4.143,0-7.5,3.357-7.5,7.5v24.977c0,4.143,3.357,7.5,7.5,7.5h204.598c4.143,0,7.5-3.357,7.5-7.5V77.017c0-0.103-0.01-0.204-0.016-0.307c0.021-0.229,0.035-0.459,0.035-0.693C219.617,73.655,218.525,71.549,216.82,70.174z M148.242,28.09l44.459,40.428H46.637L148.242,28.09z M204.598,192.728H15v-10.673c18.803-3.528,33.076-20.07,33.076-39.883S33.803,105.818,15,102.290V83.517h189.598V192.728z" fill="rgb(255 213 47)"/>
    <circle cx="174.094" cy="119.719" r="10.035" fill="#dbba35"/>
    <circle cx="76.621" cy="128.903" r="10.44" fill="#dbba35"/>
    <circle cx="150.315" cy="155.175" r="14.25" fill="#dbba35"/>
    <circle cx="98.102" cy="166.85" r="11.815" fill="#dbba35"/>
    <circle cx="122.855" cy="109.572" r="12.344" fill="#dbba35"/>
  </g>
</svg>